<?xml version="1.0" standalone="no"?>
<!DOCTYPE svg PUBLIC "-//W3C//DTD SVG 20010904//EN"
 "http://www.w3.org/TR/2001/REC-SVG-20010904/DTD/svg10.dtd">
<svg version="1.0" xmlns="http://www.w3.org/2000/svg"
 width="160.000000pt" height="160.000000pt" viewBox="0 0 160.000000 160.000000"
 preserveAspectRatio="xMidYMid meet">
<metadata>
Created by potrace 1.11, written by Peter Selinger 2001-2013
</metadata>
<g transform="translate(0.000000,160.000000) scale(0.100000,-0.100000)"
fill="#000000" stroke="none">
<path d="M905 1575 c-5 -2 -44 -13 -85 -25 -325 -94 -501 -200 -608 -365 -56
-85 -114 -202 -136 -275 -10 -30 -20 -62 -23 -70 -4 -8 -7 -17 -8 -20 -2 -7
-28 -122 -31 -136 -1 -6 -5 -21 -9 -33 -15 -48 16 -16 49 52 88 175 189 298
281 341 35 17 37 17 78 -8 80 -47 210 -171 502 -480 320 -338 506 -524 531
-530 52 -14 132 49 138 109 4 35 -44 86 -259 270 -38 33 -82 71 -96 85 -15 14
-35 32 -46 41 -10 8 -89 76 -175 150 -86 74 -178 152 -204 174 -82 67 -269
258 -296 300 l-25 40 28 41 c61 89 186 184 377 285 34 18 61 38 59 44 -4 11
-25 16 -42 10z"/>
</g>
</svg>
